<svg xmlns="http://www.w3.org/2000/svg" style="border: 0 !important; clip: rect(0 0 0 0) !important; height: 1px !important; margin: -1px !important; overflow: hidden !important; padding: 0 !important; position: absolute !important; width: 1px !important;" class="root-svg-symbols-element">
<symbol id="arrow-left" viewBox="0 0 20 32">
<path d="M16.023 31.996L0 16 16.024.004l3.663 3.609L7.279 16l12.408 12.387z"></path>
</symbol>
<symbol id="arrow-right" viewBox="0 0 20 32">
<path d="M3.663 32L19.69 16 3.663 0-.002 3.61 12.404 16-.002 28.39z"></path>
</symbol>
<symbol id="menu" viewBox="0 0 32 32">
<path d="M31.086 5.635h-14.088c-0.419 2.147-2.264 3.771-4.477 3.771-2.21 0-4.054-1.624-4.475-3.771h-7.154c-0.499 0-0.899-0.411-0.899-0.926 0-0.514 0.4-0.925 0.899-0.925h7.154c0.421-2.154 2.258-3.771 4.469-3.771 2.213 0 4.056 1.626 4.477 3.771h14.094c0.499 0 0.899 0.411 0.899 0.925 0 0.515-0.4 0.926-0.899 0.926zM12.522 1.864c-1.525 0-2.763 1.275-2.763 2.845 0 1.571 1.238 2.846 2.763 2.846 1.526 0 2.765-1.275 2.765-2.846 0-1.57-1.238-2.845-2.765-2.845zM0.893 15.050h14.694c0.419-2.154 2.27-3.771 4.477-3.771 2.21 0 4.054 1.626 4.475 3.771h6.541c0.499 0 0.898 0.411 0.898 0.926 0 0.514-0.398 0.925-0.898 0.925h-6.541c-0.421 2.147-2.266 3.773-4.475 3.773-2.213 0-4.058-1.626-4.477-3.773h-14.694c-0.499 0-0.899-0.411-0.899-0.925 0-0.515 0.4-0.926 0.899-0.926zM20.064 18.821c1.525 0 2.763-1.275 2.763-2.845 0-1.571-1.238-2.846-2.763-2.846-1.526 0-2.765 1.275-2.765 2.846 0 1.57 1.238 2.845 2.765 2.845zM0.893 26.384h7.154c0.421-2.146 2.258-3.771 4.469-3.771 2.213 0 4.056 1.626 4.477 3.771h14.088c0.499 0 0.898 0.411 0.898 0.926 0 0.514-0.398 0.925-0.898 0.925h-14.082c-0.419 2.147-2.264 3.771-4.477 3.771-2.21 0-4.054-1.624-4.475-3.771h-7.154c-0.499 0-0.899-0.411-0.899-0.925 0-0.515 0.4-0.926 0.899-0.926zM12.522 30.155c1.526 0 2.765-1.275 2.765-2.845 0-1.565-1.238-2.846-2.765-2.846-1.525 0-2.763 1.275-2.763 2.846 0 1.57 1.238 2.845 2.763 2.845z"></path>
</symbol>
<symbol id="close" viewBox="0 0 32 32">
<path d="M22.018 16.002l9.007-9.007c.613-.615.991-1.464.991-2.401s-.379-1.786-.991-2.401L29.826.992C29.211.379 28.362 0 27.424 0s-1.786.379-2.402.992l-9.005 9.007L7.011.992C6.396.379 5.547.001 4.61.001S2.824.38 2.209.992L1.008 2.193C.395 2.808.017 3.657.017 4.594s.379 1.786.991 2.401L10.013 16l-9.006 9.006c-.613.615-.991 1.464-.991 2.401s.379 1.786.991 2.401l1.201 1.199c.615.613 1.464.991 2.401.991s1.786-.379 2.401-.991l9.005-9.004 9.006 9.004c.615.613 1.464.992 2.402.992s1.786-.379 2.402-.992l1.199-1.199c.613-.615.991-1.464.991-2.401s-.379-1.786-.991-2.401z"></path>
</symbol>
<symbol id="dislike" viewBox="0 0 33 32">
<path d="M1.136 14.234a4.568 4.568 0 0 0-1.134 3.104v.032a3.86 3.86 0 0 0 1.173 2.776 3.78 3.78 0 0 0 2.755 1.189h5.743q-.083.291-.165.5c-.074.18-.15.331-.236.475-.091.15-.156.275-.197.358q-.371.708-.568 1.166a8.043 8.043 0 0 0-.379 1.192 6.656 6.656 0 0 0-.212 1.64q0 .501.011.813c.019.35.055.673.107.99.046.339.133.69.252 1.026.134.322.301.63.499.917.208.321.483.602.804.821.366.234.778.419 1.216.54a6.064 6.064 0 0 0 1.652.227l.083-.001h.001c.364 0 .691-.154.922-.399.285-.296.52-.64.691-1.02a6.1 6.1 0 0 0 .399-1.062q.122-.501.267-1.314.186-.875.279-1.26c.108-.394.231-.73.378-1.052.14-.345.357-.676.624-.959a31.13 31.13 0 0 0 2.024-2.419q1.068-1.413 2.14-2.6c.387-.551.92-.975 1.544-1.221.375-.035.685-.194.909-.434.23-.23.372-.546.372-.895V3.99c0-.358-.15-.681-.392-.909a1.353 1.353 0 0 0-.926-.406 14.839 14.839 0 0 1-3.359-.954q-1.49-.505-2.386-.786t-2.506-.6a14.78 14.78 0 0 0-2.962-.323H7.897a5.085 5.085 0 0 0-4.061 1.622 5.006 5.006 0 0 0-1.009 3.801 3.84 3.84 0 0 0-1.111 1.903c.047.394.077.817.077 1.246a9.01 9.01 0 0 1-.992 4.123c.042.521.154 1.061.343 1.563zm24.603 4.437h5.945c.363 0 .691-.154.921-.399.242-.235.393-.562.393-.925V3.996c0-.363-.15-.691-.392-.926a1.26 1.26 0 0 0-.923-.4h-5.952c-.363 0-.691.154-.921.399a1.286 1.286 0 0 0-.393.927v13.356c0 .363.15.69.392.924.23.244.555.395.915.395h.014zm2.372-12.946a1.32 1.32 0 0 1 1.866 0c.236.234.382.558.382.917v.047c0 .36-.146.685-.382.92a1.299 1.299 0 0 1-1.866.001 1.287 1.287 0 0 1-.392-.926v-.04c0-.361.15-.687.392-.919z"></path>
</symbol>
<symbol id="heart" viewBox="0 0 38 32">
<path d="M17.438 15.819a9.213 9.213 0 0 1-.84-3.873v-.099a11.96 11.96 0 0 1 .868-4.412 13.004 13.004 0 0 1 2.271-3.734 11.406 11.406 0 0 1 3.314-2.646A9.058 9.058 0 0 1 27.262 0C33.155.001 37.93 4.776 37.93 10.667c0 2.946-1.194 5.612-3.124 7.543-.964.965-14.561 13.25-15.838 13.791-1.276-.54-14.874-12.826-15.839-13.791a10.634 10.634 0 0 1-3.124-7.543C.005 4.776 4.781 0 10.672 0a9.065 9.065 0 0 1 4.198 1.047 11.45 11.45 0 0 1 3.329 2.654 13.067 13.067 0 0 1 2.268 3.725c.553 1.372.861 2.862.872 4.421v.097a9.345 9.345 0 0 1-.862 3.932 8.706 8.706 0 0 1-2.249 2.916z"></path>
</symbol>
<symbol id="like" viewBox="0 0 33 32">
<path d="M31.861 17.764a4.568 4.568 0 0 0 1.135-3.022l-.001-.081v-.033c0-1.088-.45-2.072-1.174-2.774a3.773 3.773 0 0 0-2.753-1.189h-5.743q.082-.291.165-.5c.074-.18.15-.33.236-.474a4.91 4.91 0 0 0 .197-.359q.371-.708.568-1.167c.143-.345.277-.762.379-1.191a6.65 6.65 0 0 0 .212-1.64q0-.501-.011-.814a9.075 9.075 0 0 0-.107-.989 5.209 5.209 0 0 0-.252-1.026 4.994 4.994 0 0 0-.499-.917 2.922 2.922 0 0 0-.804-.821 4.418 4.418 0 0 0-1.216-.54A6.053 6.053 0 0 0 20.541 0l-.083.001h-.002c-.363 0-.691.154-.921.399a3.64 3.64 0 0 0-.691 1.019c-.16.328-.296.689-.399 1.063q-.124.502-.268 1.314-.186.876-.279 1.261a6.61 6.61 0 0 1-.378 1.051c-.14.345-.356.677-.623.96a30.75 30.75 0 0 0-2.025 2.42q-1.067 1.412-2.139 2.599c-.388.55-.921.975-1.544 1.221a1.398 1.398 0 0 0-.909.434c-.23.23-.372.546-.372.895v13.372c0 .358.15.681.391.909.237.243.564.396.926.407a14.89 14.89 0 0 1 3.359.953q1.489.503 2.386.785t2.505.605c.888.195 1.912.312 2.961.323h2.667a5.086 5.086 0 0 0 4.061-1.622 5.008 5.008 0 0 0 1.059-3.092c0-.24-.017-.477-.049-.708a3.843 3.843 0 0 0 1.111-1.903 10.592 10.592 0 0 1-.077-1.246c0-1.485.358-2.886.992-4.123a5.759 5.759 0 0 0-.351-1.567zM7.267 13.327h-5.95c-.363 0-.691.154-.921.399a1.287 1.287 0 0 0-.393.926v13.351c0 .363.15.691.392.925.231.244.557.395.919.395h5.958c.361 0 .687-.151.918-.394.242-.235.393-.563.393-.926V14.648c0-.363-.15-.691-.392-.925a1.26 1.26 0 0 0-.918-.396h-.011zM4.895 26.272a1.32 1.32 0 0 1-1.866 0c-.236-.243-.381-.576-.381-.942s.145-.699.382-.943a1.296 1.296 0 0 1 1.864 0 1.325 1.325 0 0 1-.004 1.885z"></path>
</symbol>
<symbol id="play" viewBox="0 0 32 32">
<path d="M16 0C7.163 0 0 7.163 0 16s7.163 16 16 16 16-7.163 16-16S24.837 0 16 0zm0 29C8.82 29 3 23.18 3 16S8.82 3 16 3s13 5.82 13 13-5.82 13-13 13zM12 9l12 7-12 7z"></path>
</symbol>
<symbol id="search" viewBox="0 0 32 32">
<path d="M31.212 27.441l-6.945-6.951a.8.8 0 0 1-.12-.09 13.033 13.033 0 0 0 2.174-7.243C26.321 5.89 20.43 0 13.164 0S.007 5.891.007 13.157c0 7.267 5.891 13.157 13.157 13.157 2.691 0 5.192-.808 7.276-2.194a.17.17 0 0 0 .048.158l6.946 6.938a2.671 2.671 0 1 0 3.778-3.776zm-18.043-5.684a8.584 8.584 0 1 1 8.585-8.583v.007a8.577 8.577 0 0 1-8.577 8.577h-.009z"></path>
</symbol>
<symbol id="user" viewBox="0 0 30 32">
<path d="M14.763 15.997l.114.001a7.799 7.799 0 0 0 5.576-2.336c1.457-1.445 2.358-3.446 2.358-5.658s-.901-4.213-2.357-5.657C18.991.902 16.981.01 14.762.01S10.533.902 9.07 2.348C7.614 3.791 6.712 5.792 6.712 8.004s.902 4.214 2.358 5.657a7.803 7.803 0 0 0 5.579 2.338l.119-.001zm14.684 8.436a21.352 21.352 0 0 0-.315-2.395 17.588 17.588 0 0 0-.57-2.257 11.066 11.066 0 0 0-.894-1.956 7.565 7.565 0 0 0-1.27-1.631 5.294 5.294 0 0 0-1.757-1.096 6.222 6.222 0 0 0-2.283-.431l-.095.001a2.605 2.605 0 0 0-.882.447q-.684.438-1.555.992c-.65.397-1.4.739-2.191.989a9.103 9.103 0 0 1-5.733.002c-.8-.25-1.55-.593-2.245-1.016l-1.516-.97a2.537 2.537 0 0 0-.862-.438c-.045-.005-.078-.005-.11-.005-.807 0-1.579.154-2.287.434a5.3 5.3 0 0 0-1.754 1.095 7.627 7.627 0 0 0-1.276 1.645 10.73 10.73 0 0 0-.898 1.989c-.226.69-.419 1.451-.562 2.23a20.988 20.988 0 0 0-.306 2.301A32.902 32.902 0 0 0 .009 26.6a5.135 5.135 0 0 0 1.529 3.935 5.632 5.632 0 0 0 4.081 1.452l18.311.001a5.628 5.628 0 0 0 4.071-1.455 5.129 5.129 0 0 0 1.526-3.944 33.014 33.014 0 0 0-.077-2.152z"></path>
</symbol>
<symbol id="flag" viewBox="0 0 30 32">
<path d="M4.046 2.472c-0.463-0.463-1.022-0.694-1.676-0.694s-1.213 0.232-1.676 0.694c-0.463 0.463-0.694 1.022-0.694 1.676 0 0.889 0.395 1.568 1.185 2.037v23.444c0 0.161 0.058 0.299 0.176 0.417s0.256 0.176 0.417 0.176h1.185c0.16 0 0.299-0.058 0.417-0.176s0.176-0.256 0.176-0.417v-23.444c0.79-0.469 1.185-1.148 1.185-2.037 0-0.654-0.231-1.213-0.694-1.676z"></path>
<path d="M31.648 4.5c-0.235-0.235-0.513-0.352-0.834-0.352-0.16 0-0.497 0.13-1.009 0.389s-1.056 0.549-1.63 0.87c-0.574 0.321-1.253 0.611-2.037 0.87s-1.509 0.389-2.176 0.389c-0.618 0-1.161-0.117-1.63-0.352-1.556-0.728-2.907-1.272-4.055-1.63s-2.383-0.537-3.704-0.537c-2.284 0-4.883 0.741-7.796 2.222-0.716 0.358-1.204 0.624-1.463 0.796-0.383 0.284-0.574 0.623-0.574 1.019v13.741c0 0.321 0.118 0.599 0.352 0.833s0.512 0.352 0.833 0.352c0.197 0 0.401-0.055 0.611-0.166 3.358-1.803 6.222-2.704 8.593-2.704 0.901 0 1.781 0.136 2.638 0.407s1.571 0.568 2.139 0.889c0.568 0.321 1.238 0.618 2.009 0.889s1.534 0.407 2.287 0.407c1.901 0 4.179-0.716 6.833-2.148 0.334-0.173 0.577-0.342 0.731-0.509s0.232-0.404 0.232-0.713v-14.13c0-0.321-0.117-0.598-0.352-0.833z"></path>
</symbol>





</svg>