<?xml version="1.0" encoding="UTF-8"?>
<svg version="1.1" xmlns="http://www.w3.org/2000/svg" viewBox="0 0 32 32" width="20" height="20" fill='#fff'>		 
						<path d="M15.956 7.885c-4.381 0-7.929 3.549-7.929 7.929s3.549 7.929 7.929 7.929c4.381 0 7.929-3.549 7.929-7.929s-3.549-7.929-7.929-7.929zM15.956 21.646c-3.221 0-5.832-2.611-5.832-5.832s2.611-5.832 5.832-5.832c3.221 0 5.832 2.611 5.832 5.832s-2.611 5.832-5.832 5.832z"></path>
						<path d="M16.097 6.522c0 0-3.451-6.531 0-6.531 3.451 0.009 0 6.531 0 6.531z"></path>
						<path d="M15.903 25.469c0 0 3.46 6.522 0 6.522-3.451 0 0-6.522 0-6.522z"></path>
						<path d="M9.23 22.628c0 0-2.168 7.062-4.611 4.611-2.442-2.442 4.611-4.611 4.611-4.611z"></path>
						<path d="M6.522 15.903c0 0-6.522 3.451-6.522 0s6.522 0 6.522 0z"></path>
						<path d="M9.372 9.23c0 0-7.053-2.168-4.611-4.611 2.434-2.442 4.611 4.611 4.611 4.611z"></path>
						<path d="M30.681 15.85c0 4.398-3.566 7.956-7.956 7.956-4.398 0-7.956-3.566-7.956-7.956 0-4.398 3.566-7.956 7.956-7.956 4.389-0.009 7.956 3.558 7.956 7.956z"></path>
					</svg>