<?xml version="1.0" encoding="UTF-8"?>
<svg version="1.1" xmlns="http://www.w3.org/2000/svg" width="20" height="20" viewBox="0 0 32 32" fill="#667580">
								<path d="M30.966 30.545c-0.905 0-6.723-5.6-6.723-6.337v-7.338c0-0.737 5.687-6.337 6.723-6.337 1.034 0 1.034 1.001 1.034 1.001v18.012c0 0-0.129 1.001-1.034 1.001zM21.721 29.044h-20.169c-0.858 0-1.552-0.508-1.552-1.135v-14.743c0-0.625 0.694-1.133 1.552-1.133h20.169c0.857 0 1.552 0.508 1.552 1.133v14.743c0 0.627-0.695 1.135-1.552 1.135zM16.486 11.462c-2.679 0-4.849-2.241-4.849-5.004 0-2.764 2.17-5.004 4.849-5.004 2.676 0 4.848 2.24 4.848 5.004 0 2.762-2.172 5.004-4.848 5.004zM5.818 11.462c-2.143 0-3.878-1.793-3.878-4.003 0-2.211 1.735-4.003 3.878-4.003s3.878 1.792 3.878 4.003c0 2.209-1.735 4.003-3.878 4.003z"></path>
							</svg>